<svg id="Layer_1" data-name="Layer 1" xmlns="http://www.w3.org/2000/svg" viewBox="0 0 226.08 295.68"><defs><style>.cls-1{fill:#fff;}</style></defs><path class="cls-1" d="M113.88,0h112.2V295.68H0V0H112.92c-.4.13-.8.29-1.21.38-2.08.43-4,1.12-5.3,2.94-1.76,2.54-2.63,5.29-1.55,8.36.26.73.27,1.41-.36,1.8-.3.19-.92-.06-1.36-.21-2.48-.82-5-1.12-7.26.39-2.63,1.8-4.31,4.69-2.35,9.81,1,2.52,4.82,4.58,7.84,4.14.78-.12,1.12.09,1.23.84a10.62,10.62,0,0,0,.55,2.8,5,5,0,0,1-.17,3.91,6.46,6.46,0,0,0,.3,5.78,2.85,2.85,0,0,1,.19,3c-1,2-.54,4,.06,5.93a2.18,2.18,0,0,1,0,1.31,9.76,9.76,0,0,0,.52,8.11,1.52,1.52,0,0,1,0,1.27c-1.55,2.79-2.35,5.61-.37,8.8-2.67.43-5.15.77-7.6,1.23Q90,71.76,84,73a1.13,1.13,0,0,1-1.44-.64c-1.73-3-5.49-3.46-8.47-2.77a4.32,4.32,0,0,0-1.63.7c-4.14,3.16-4.09,8-.93,11.65a7.4,7.4,0,0,0,10.8.1c.71-.69,1.28-1.39,2.52-1.26,4.88.52,9.77.92,14.66,1.32.77.06.95.35.87,1a29.8,29.8,0,0,0-.18,3q0,12.88,0,25.77v6.23a2.15,2.15,0,0,1-.36.18c-3.88.53-7.76,1-11.63,1.6-.75.11-.85-.31-1-.85Q85.76,114,84.27,109c-.49-1.64-1.22-2-3-1.43-1.41.42-1.75,1.09-1.29,2.66.89,3.11,1.8,6.21,2.69,9.32.13.44.22.89.34,1.37l-1.16.34c-3.31.9-6.64,1.75-9.92,2.74-1,.31-1.45.15-1.94-.77-2.82-5.29-5.67-10.55-8.6-15.77a3.34,3.34,0,0,0-1.88-1.61c-1.47-.27-2.69.64-3.64,1.68s-.42,2,.13,3q4.07,7.41,8.07,14.84c.2.36.36.75.47,1L47.37,134.7c-.2-.27-.47-.61-.72-1-1.88-2.63-3.75-5.27-5.64-7.89-.95-1.31-1.73-1.36-3.25-.27-1.19.85-1.31,1.57-.43,2.83,1.73,2.44,3.48,4.88,5.22,7.32l1,1.45L31,146.5a5.45,5.45,0,0,0-.67-1c-4.06-4.13-8.12-8.27-12.24-12.33a3.44,3.44,0,0,0-2.26-1c-1.52.08-2.42,1.32-3,2.57s.12,2,.93,2.84q6,6,12,12.1c.3.3.59.62.86.9l-9.77,10.2-.89-.64c-2.41-1.86-4.78-3.75-7.24-5.53a2.63,2.63,0,0,0-2-.46c-2,.75-2.21,2.78-.54,4.08l2.75,2.12,5.15,4c-.27.37-.47.66-.68.94A113.43,113.43,0,0,0,1.08,184.32c-.9,1.8-.91,1.84.71,3a256,256,0,0,0,56.35,30.46,170.61,170.61,0,0,0,38.48,10.15c1.44.19,2.85.59,4.28.89v1.63c0,7.2,0,14.39,0,21.59,0,2.27.07,4.55.29,6.81A119.35,119.35,0,0,0,104.6,279c1.42,5.28,3,10.5,6.54,14.87,1.59,2,2.55,2.1,4.29.22a7.58,7.58,0,0,0,1.11-1.41c1.21-2.15,2.43-4.3,3.57-6.49,2.07-4,2.86-8.32,3.85-12.63a62.28,62.28,0,0,0,1.31-14.48c-.1-9.11,0-18.22,0-27.33,0-3.54-.49-3.11,3.15-3.62a175.66,175.66,0,0,0,27.12-6,224.42,224.42,0,0,0,41.87-18,246.59,246.59,0,0,0,27.34-17.27c.81-.59,1-1,.44-1.92-2.91-4.68-5.7-9.44-8.68-14.06-1.57-2.44-3.45-4.68-5.23-7.06,3-2.32,6-4.6,8.94-6.91,1.05-.81,1.11-1.6.31-2.67-1.08-1.42-1.88-1.69-3-.91-.88.62-1.72,1.31-2.57,2l-6.15,4.73-10.63-9.77a10.87,10.87,0,0,0,1.31-.9c4.26-4.28,8.52-8.55,12.72-12.89a3.4,3.4,0,0,0,1-2.14c-.08-1.54-1.33-2.45-2.56-3.09s-2.1.06-2.95.93c-4.31,4.4-8.65,8.76-13,13.13-.31.31-.62.59-.87.83l-12.26-9c.2-.3.41-.63.64-.95,2.09-2.93,4.17-5.86,6.27-8.78a1.81,1.81,0,0,0,.33-2.1,2.35,2.35,0,0,0-4.17-.26q-3.13,4.38-6.26,8.78c-.25.34-.52.67-.64.83l-17-8.34c.14-.27.31-.63.5-1l8.52-15.68c1.14-2.1.87-3.07-1.17-4.18-2.23-1.21-3.14-1-4.34,1.26l-6.57,12.1-3,5.42-12.16-3.4c.09-.37.14-.64.22-.9l3.12-10.81c.26-.91.3-1.76-.64-2.32-1.84-1.1-3.22-.55-3.81,1.51-1,3.6-2.1,7.2-3.11,10.81-.19.69-.48.86-1.18.76q-5.81-.82-11.63-1.54c-.83-.1-1.07-.41-1-1.22.06-1.83,0-3.67,0-5.5q0-13.91,0-27.82c0-.58.14-.85.77-.92,4.95-.59,9.91-1.15,14.84-1.87a4.24,4.24,0,0,1,3.72,1.07c3.78,3.1,8.34,3.13,11.12-1,1.67-2.45,2.43-5,1.13-7.88-2.32-5.12-9.33-5.07-12.16-1.3a2.11,2.11,0,0,1-2.54.83c-4.34-.89-8.69-1.67-13-2.47-1.95-.36-3.9-.67-5.51-1a45.42,45.42,0,0,0-.7-5.72,5.28,5.28,0,0,1,.2-3.45,8.54,8.54,0,0,0,.1-6.31,4,4,0,0,1,0-2.2,12.49,12.49,0,0,0,0-6.48,3.27,3.27,0,0,1,.19-2,8.7,8.7,0,0,0-.12-7.72,2.72,2.72,0,0,1-.07-1.48,41.44,41.44,0,0,0,.57-4.24,26.79,26.79,0,0,0-.53-3.94c3.86,2,7.7,1.71,9.72-.74,2.22-2.7,2.41-7.76.28-10.16a8.12,8.12,0,0,0-5-3.1,7.23,7.23,0,0,0-6.45,2.6A6.3,6.3,0,0,1,121,13a6.54,6.54,0,0,1,.44-1.36c1.55-3.87-.18-9.61-5.37-11Z" transform="translate(0 0)"/><path d="M113.88,0,116,.63c5.19,1.4,6.92,7.14,5.37,11A6.54,6.54,0,0,0,121,13a6.3,6.3,0,0,0,.07,1.41,7.23,7.23,0,0,1,6.45-2.6,8.12,8.12,0,0,1,5,3.1c2.13,2.4,1.94,7.46-.28,10.16-2,2.45-5.86,2.74-9.72.74a26.79,26.79,0,0,1,.53,3.94,41.44,41.44,0,0,1-.57,4.24,2.72,2.72,0,0,0,.07,1.48,8.7,8.7,0,0,1,.12,7.72,3.27,3.27,0,0,0-.19,2,12.49,12.49,0,0,1,0,6.48,4,4,0,0,0,0,2.2,8.54,8.54,0,0,1-.1,6.31,5.28,5.28,0,0,0-.2,3.45,45.42,45.42,0,0,1,.7,5.72c1.61.28,3.56.59,5.51,1,4.35.8,8.7,1.58,13,2.47A2.11,2.11,0,0,0,144,72c2.83-3.77,9.84-3.82,12.16,1.3,1.3,2.87.54,5.43-1.13,7.88-2.78,4.11-7.34,4.08-11.12,1a4.24,4.24,0,0,0-3.72-1.07c-4.93.72-9.89,1.28-14.84,1.87-.63.07-.77.34-.77.92q0,13.92,0,27.82c0,1.83,0,3.67,0,5.5,0,.81.21,1.12,1,1.22q5.82.7,11.63,1.54c.7.1,1-.07,1.18-.76,1-3.61,2.07-7.21,3.11-10.81.59-2.06,2-2.61,3.81-1.51.94.56.9,1.41.64,2.32L142.8,120c-.08.26-.13.53-.22.9l12.16,3.4,3-5.42,6.57-12.1c1.2-2.21,2.11-2.47,4.34-1.26,2,1.11,2.31,2.08,1.17,4.18l-8.52,15.68c-.19.35-.36.71-.5,1l17,8.34c.12-.16.39-.49.64-.83q3.14-4.4,6.26-8.78a2.35,2.35,0,0,1,4.17.26,1.81,1.81,0,0,1-.33,2.1c-2.1,2.92-4.18,5.85-6.27,8.78-.23.32-.44.65-.64.95l12.26,9c.25-.24.56-.52.87-.83,4.33-4.37,8.67-8.73,13-13.13.85-.87,1.82-1.52,2.95-.93s2.48,1.55,2.56,3.09a3.4,3.4,0,0,1-1,2.14c-4.2,4.34-8.46,8.61-12.72,12.89a10.87,10.87,0,0,1-1.31.9l10.63,9.77,6.15-4.73c.85-.66,1.69-1.35,2.57-2,1.11-.78,1.91-.51,3,.91.8,1.07.74,1.86-.31,2.67-3,2.31-5.94,4.59-8.94,6.91,1.78,2.38,3.66,4.62,5.23,7.06,3,4.62,5.77,9.38,8.68,14.06.55.87.37,1.33-.44,1.92a246.59,246.59,0,0,1-27.34,17.27,224.42,224.42,0,0,1-41.87,18,175.66,175.66,0,0,1-27.12,6c-3.64.51-3.14.08-3.15,3.62,0,9.11-.08,18.22,0,27.33A62.28,62.28,0,0,1,124,273.53c-1,4.31-1.78,8.67-3.85,12.63-1.14,2.19-2.36,4.34-3.57,6.49a7.58,7.58,0,0,1-1.11,1.41c-1.74,1.88-2.7,1.75-4.29-.22-3.54-4.37-5.12-9.59-6.54-14.87a119.35,119.35,0,0,1-3.4-20.14c-.22-2.26-.28-4.54-.29-6.81,0-7.2,0-14.39,0-21.59V228.8c-1.43-.3-2.84-.7-4.28-.89a170.61,170.61,0,0,1-38.48-10.15A256,256,0,0,1,1.79,187.3c-1.62-1.14-1.61-1.18-.71-3a113.43,113.43,0,0,1,12.15-19.07c.21-.28.41-.57.68-.94l-5.15-4L6,158.21c-1.67-1.3-1.46-3.33.54-4.08a2.63,2.63,0,0,1,2.05.46c2.46,1.78,4.83,3.67,7.24,5.53l.89.64,9.77-10.2c-.27-.28-.56-.6-.86-.9q-6-6.06-12-12.1c-.81-.81-1.51-1.71-.93-2.84s1.53-2.49,3-2.57a3.44,3.44,0,0,1,2.26,1c4.12,4.06,8.18,8.2,12.24,12.33a5.45,5.45,0,0,1,.67,1l12.61-9.33-1-1.45c-1.74-2.44-3.49-4.88-5.22-7.32-.88-1.26-.76-2,.43-2.83,1.52-1.09,2.3-1,3.25.27,1.89,2.62,3.76,5.26,5.64,7.89.25.36.52.7.72,1l17.15-8.37c-.11-.22-.27-.61-.47-1q-4-7.42-8.07-14.84c-.55-1-1-2-.13-3s2.17-2,3.64-1.68a3.34,3.34,0,0,1,1.88,1.61c2.93,5.22,5.78,10.48,8.6,15.77.49.92.92,1.08,1.94.77,3.28-1,6.61-1.84,9.92-2.74l1.16-.34c-.12-.48-.21-.93-.34-1.37-.89-3.11-1.8-6.21-2.69-9.32-.46-1.57-.12-2.24,1.29-2.66,1.8-.54,2.53-.21,3,1.43q1.49,5,2.93,10.11c.15.54.25,1,1,.85,3.87-.56,7.75-1.07,11.63-1.6a2.15,2.15,0,0,0,.36-.18V112q0-12.89,0-25.77a29.8,29.8,0,0,1,.18-3c.08-.7-.1-1-.87-1-4.89-.4-9.78-.8-14.66-1.32-1.24-.13-1.81.57-2.52,1.26a7.4,7.4,0,0,1-10.8-.1c-3.16-3.67-3.21-8.49.93-11.65a4.32,4.32,0,0,1,1.63-.7c3-.69,6.74-.24,8.47,2.77A1.13,1.13,0,0,0,84,73q6-1.28,12.08-2.42c2.45-.46,4.93-.8,7.6-1.23-2-3.19-1.18-6,.37-8.8a1.52,1.52,0,0,0,0-1.27,9.76,9.76,0,0,1-.52-8.11,2.18,2.18,0,0,0,0-1.31c-.6-2-1.06-3.93-.06-5.93a2.85,2.85,0,0,0-.19-3,6.46,6.46,0,0,1-.3-5.78,5,5,0,0,0,.17-3.91,10.62,10.62,0,0,1-.55-2.8c-.11-.75-.45-1-1.23-.84-3,.44-6.87-1.62-7.84-4.14-2-5.12-.28-8,2.35-9.81,2.22-1.51,4.78-1.21,7.26-.39.44.15,1.06.4,1.36.21.63-.39.62-1.07.36-1.8-1.08-3.07-.21-5.82,1.55-8.36,1.26-1.82,3.22-2.51,5.3-2.94.41-.09.81-.25,1.21-.38Zm104.3,186.24c-1.46-2-2.78-3.91-4.17-5.76a112.34,112.34,0,0,0-17.49-18.32,124.28,124.28,0,0,0-25.87-16.9,116.06,116.06,0,0,0-18.33-7.16,22.86,22.86,0,0,1-7.63-3.69,52.91,52.91,0,0,0-65.1,1.11,6.22,6.22,0,0,1-1.93,1.11c-3.63,1.17-7.31,2.2-10.91,3.43a114.07,114.07,0,0,0-23.38,11.3,121.35,121.35,0,0,0-16.24,12.21A107.27,107.27,0,0,0,8.42,185.09c-.6.9-.54,1.4.42,2,7.18,4.21,14.25,8.6,21.51,12.67a223.35,223.35,0,0,0,23.19,11,206.44,206.44,0,0,0,24.31,8.39,38.38,38.38,0,0,1,9.38,3.66,49.55,49.55,0,0,0,29.13,6.79,51.33,51.33,0,0,0,24.89-8.31,7.22,7.22,0,0,1,1.95-.85c5.34-1.58,10.73-3,16-4.71a203.79,203.79,0,0,0,24.23-9.78,265.11,265.11,0,0,0,27.69-15.13C213.44,189.34,215.69,187.85,218.18,186.24ZM105,229.65v1.29c0,8.39-.06,16.78.14,25.17a113.82,113.82,0,0,0,1.15,14.53A62.88,62.88,0,0,0,110.71,286c.36.84.7,1.68,1.05,2.53l.32-.1c0-3.21,0-6.43,0-9.65a14.77,14.77,0,0,0-.22-3.33c-.54-2.24-1.29-4.42-1.9-6.64a18.21,18.21,0,0,1-1-4.52c-.08-10.91,0-21.82,0-32.73v-1.45Zm3.16-111.87a2.5,2.5,0,0,0,.13-.53c0-6.12.08-12.23-.07-18.34a7.51,7.51,0,0,1,1-4.54,2.4,2.4,0,0,0-.1-3c-1.32-1.94-2.6-3.9-3.9-5.85l-1.37-2v34.48Zm6.68-75.46a20.1,20.1,0,0,0,3.66-.4c3.12-.9,3-3.26,1.54-5.27a1.34,1.34,0,0,0-1.14-.34,14.84,14.84,0,0,1-9.12-.73,9.19,9.19,0,0,0-2.17-.65,1.44,1.44,0,0,0-1.12.33,3.62,3.62,0,0,0,.73,5.39A16.14,16.14,0,0,0,114.88,42.32Zm-.83,187.9v39.17l.31,0c.7-1.94,1.72-3.74,1.71-6-.06-10.66,0-21.33,0-32v-1.26Zm.53-179.49,0-.33c1.24,0,2.47,0,3.71,0a2.55,2.55,0,0,0,2.47-2.53c0-2.89-1.14-3.89-4-3.38a.86.86,0,0,1-.23.05,44.68,44.68,0,0,1-6.13-.45c-1.63-.34-3.28-.14-3.76,1.06-.76,1.87-.2,4,1.46,4.45A64.48,64.48,0,0,0,114.58,50.73Zm.29,8.84v-.12c1.2,0,2.4.07,3.59,0,1.51-.12,2.4-1.44,2.36-3.33a2.18,2.18,0,0,0-2.19-2.34c-3.29-.27-6.57-.57-9.86-.78a2.13,2.13,0,0,0-1.63.44,4.11,4.11,0,0,0-.5,3.76,2.68,2.68,0,0,0,2.52,1.89Zm.19-25.85.08-.38a19.06,19.06,0,0,0,2.39,0c1.36-.18,2.78-.52,3.23-2a3,3,0,0,0-3.35-4c-.6.05-1.19.12-1.79.19a13.5,13.5,0,0,1-6-.51,7.43,7.43,0,0,0-2-.36,1.27,1.27,0,0,0-.9.43c-.95,1.21-.25,4.52,1.21,5C110.25,32.75,112.67,33.17,115.06,33.72Zm-1.67,35.06v.12c1.59-.09,3.18-.17,4.78-.28a2.54,2.54,0,0,0,2.62-2.44c.22-1.61-1.06-3.45-2.35-3.3a20.34,20.34,0,0,1-8.64-.45,2.53,2.53,0,0,0-3.26,1.85,3.66,3.66,0,0,0,2.89,4.47C110.75,68.88,112.08,68.78,113.39,68.78Zm-.62,25.94v23h2.17a3.32,3.32,0,0,0,.1-.52q0-9,0-18.1C115,97.26,113.89,96,112.77,94.72Zm-5.32-12c0,.19-.09.29-.06.34,1.56,2.2,3.11,4.41,4.69,6.6.44.61.93.28,1.3-.13q1.86-2.1,3.69-4.23c.56-.66,1.07-1.35,1.61-2L118.5,83C114.78,84,111.11,83.08,107.45,82.69Zm2-73.52.75-.13c1.84-.36,2.65-1.93,3.72-3.18a2,2,0,0,0,.11-2.65,2,2,0,0,0-2.58-.6,7,7,0,0,0-4,4.18C107,8.25,107.76,9.19,109.5,9.17Zm16.8,5.35c-2-.07-3.08,1.11-3.79,2.81a1.66,1.66,0,0,0,1.31,2.24A4.81,4.81,0,0,0,128,18.12c.63-.56,1.32-1.28.81-2.27A2.19,2.19,0,0,0,126.3,14.52ZM72,76.21l-.29.18a8.56,8.56,0,0,0,1.35,2.14c.74.65,1.56,0,2.13-.49a5.63,5.63,0,0,0,1.91-3.74c.1-1.39-.62-2.07-2-2C73.51,72.45,72,74.33,72,76.21Zm40.17-1.93V73.9c-.78-.15-1.56-.37-2.36-.45A38.86,38.86,0,0,0,104,73c-2.25.13-4.47.69-6.71,1-3.62.55-7.24,1.07-10.86,1.61a4.34,4.34,0,0,0-.65.25l.07.31A155.33,155.33,0,0,1,112.18,74.28ZM100.73,17.61c0-1.85-1.52-2.93-2.78-2.08a8.68,8.68,0,0,0-2.38,2.59,2,2,0,0,0,.68,2.56,1.72,1.72,0,0,0,2.32.19A5,5,0,0,0,100.73,17.61Zm51,56c-.6-.49-1-1.12-1.56-1.24-2-.43-4.4,1.35-4.84,3.37-.19.85.09,1.35.95,1.06a45.94,45.94,0,0,0,4.47-1.88C151.09,74.71,151.28,74.18,151.71,73.57Zm-22.59-.15,0,.23c1.95.65,3.91,1.29,5.86,2,1.5.51,3,1.11,4.49,1.6.73.24,1.64.36,1.91-.55.07-.23-.89-1-1.47-1.16-1.77-.47-3.58-.77-5.37-1.11S130.92,73.74,129.12,73.42ZM118.55,5.55c0,2.3.08,4.59-1.8,6.31a7.91,7.91,0,0,1-6.36,2.34c1.68,1.27,5.3.5,7.61-2C119.58,10.5,119.83,7.23,118.55,5.55Zm35.47,69c.15,2.43-.07,4.47-2,5.79s-3.93,1.1-6.17.76c1.41,1.3,4.82,1.25,6.51.07S154.93,77,154,74.56Zm-73.26-.9c1.41,4.54.38,7.62-4.59,8.5,1.67.61,4.17-.62,5.38-2.52A4.86,4.86,0,0,0,80.76,73.66Zm51-55.4c-.26,3.1-1.51,5.43-4.73,6.41a3,3,0,0,0,3.42-1A5.56,5.56,0,0,0,131.73,18.26Zm-27.14-.2c.71,3.25-.32,5.67-3.33,7.2,1.7-.11,4-2,4.16-3.48C105.56,20.53,105.85,19.12,104.59,18.06Z" transform="translate(0 0)"/><path class="cls-1" d="M218.18,186.24c-2.49,1.61-4.74,3.1-7,4.53a265.11,265.11,0,0,1-27.69,15.13,203.79,203.79,0,0,1-24.23,9.78c-5.29,1.71-10.68,3.13-16,4.71a7.22,7.22,0,0,0-1.95.85,51.33,51.33,0,0,1-24.89,8.31,49.55,49.55,0,0,1-29.13-6.79,38.38,38.38,0,0,0-9.38-3.66,206.44,206.44,0,0,1-24.31-8.39,223.35,223.35,0,0,1-23.19-11c-7.26-4.07-14.33-8.46-21.51-12.67-1-.56-1-1.06-.42-2a107.27,107.27,0,0,1,18.71-21.52,121.35,121.35,0,0,1,16.24-12.21,114.07,114.07,0,0,1,23.38-11.3c3.6-1.23,7.28-2.26,10.91-3.43a6.22,6.22,0,0,0,1.93-1.11,52.91,52.91,0,0,1,65.1-1.11,22.86,22.86,0,0,0,7.63,3.69,116.06,116.06,0,0,1,18.33,7.16,124.28,124.28,0,0,1,25.87,16.9A112.34,112.34,0,0,1,214,180.48C215.4,182.33,216.72,184.21,218.18,186.24ZM112.94,227.32a50.58,50.58,0,1,0-50.59-50.57A50.71,50.71,0,0,0,112.94,227.32Zm38.67-87.17c9.68,11,14.68,23.61,14.24,38.19s-6.21,26.91-16.54,37.25a257,257,0,0,0,60.13-29.66,115.7,115.7,0,0,0-30.12-31.19C170.71,148.68,161.31,144.13,151.61,140.15ZM76.48,215.44c-10.3-10.25-16-22.52-16.49-37s4.52-27.2,14.5-38.22c-14.63,5.57-27.66,13.13-39,23.48a119.84,119.84,0,0,0-19,22.21A258.91,258.91,0,0,0,76.48,215.44Z" transform="translate(0 0)"/><path class="cls-1" d="M105,229.65l3.85.43v1.45c0,10.91,0,21.82,0,32.73a18.21,18.21,0,0,0,1,4.52c.61,2.22,1.36,4.4,1.9,6.64a14.77,14.77,0,0,1,.22,3.33c0,3.22,0,6.44,0,9.65l-.32.1c-.35-.85-.69-1.69-1.05-2.53a62.88,62.88,0,0,1-4.38-15.33,113.82,113.82,0,0,1-1.15-14.53c-.2-8.39-.11-16.78-.14-25.17Z" transform="translate(0 0)"/><path class="cls-1" d="M108.2,117.78l-4.31.27V83.57l1.37,2c1.3,2,2.58,3.91,3.9,5.85a2.4,2.4,0,0,1,.1,3,7.51,7.51,0,0,0-1,4.54c.15,6.11.07,12.22.07,18.34A2.5,2.5,0,0,1,108.2,117.78Z" transform="translate(0 0)"/><path class="cls-1" d="M114.88,42.32a16.14,16.14,0,0,1-7.62-1.67,3.62,3.62,0,0,1-.73-5.39,1.44,1.44,0,0,1,1.12-.33,9.19,9.19,0,0,1,2.17.65,14.84,14.84,0,0,0,9.12.73,1.34,1.34,0,0,1,1.14.34c1.46,2,1.58,4.37-1.54,5.27A20.1,20.1,0,0,1,114.88,42.32Z" transform="translate(0 0)"/><path class="cls-1" d="M114.05,230.22h2v1.26c0,10.66,0,21.33,0,32,0,2.22-1,4-1.71,6l-.31,0Z" transform="translate(0 0)"/><path class="cls-1" d="M114.58,50.73a64.48,64.48,0,0,1-6.38-1.14c-1.66-.46-2.22-2.58-1.46-4.45.48-1.2,2.13-1.4,3.76-1.06a44.68,44.68,0,0,0,6.13.45.86.86,0,0,0,.23-.05c2.81-.51,4,.49,4,3.38a2.55,2.55,0,0,1-2.47,2.53c-1.24,0-2.47,0-3.71,0Z" transform="translate(0 0)"/><path class="cls-1" d="M114.87,59.57l-5.71-.5a2.68,2.68,0,0,1-2.52-1.89,4.11,4.11,0,0,1,.5-3.76,2.13,2.13,0,0,1,1.63-.44c3.29.21,6.57.51,9.86.78a2.18,2.18,0,0,1,2.19,2.34c0,1.89-.85,3.21-2.36,3.33-1.19.09-2.39,0-3.59,0Z" transform="translate(0 0)"/><path class="cls-1" d="M115.06,33.72c-2.39-.55-4.81-1-7.14-1.7-1.46-.45-2.16-3.76-1.21-5a1.27,1.27,0,0,1,.9-.43,7.43,7.43,0,0,1,2,.36,13.5,13.5,0,0,0,6,.51c.6-.07,1.19-.14,1.79-.19a3,3,0,0,1,3.35,4c-.45,1.5-1.87,1.84-3.23,2a19.06,19.06,0,0,1-2.39,0Z" transform="translate(0 0)"/><path class="cls-1" d="M113.39,68.78c-1.31,0-2.64.1-4,0a3.66,3.66,0,0,1-2.89-4.47,2.53,2.53,0,0,1,3.26-1.85,20.34,20.34,0,0,0,8.64.45c1.29-.15,2.57,1.69,2.35,3.3a2.54,2.54,0,0,1-2.62,2.44c-1.6.11-3.19.19-4.78.28Z" transform="translate(0 0)"/><path class="cls-1" d="M112.77,94.72C113.89,96,115,97.26,115,99.07q0,9.06,0,18.1a3.32,3.32,0,0,1-.1.52h-2.17Z" transform="translate(0 0)"/><path class="cls-1" d="M107.45,82.69c3.66.39,7.33,1.28,11,.3l.18.26c-.54.67-1.05,1.36-1.61,2q-1.83,2.13-3.69,4.23c-.37.41-.86.74-1.3.13-1.58-2.19-3.13-4.4-4.69-6.6C107.36,83,107.41,82.88,107.45,82.69Z" transform="translate(0 0)"/><path class="cls-1" d="M109.5,9.17c-1.74,0-2.48-.92-2-2.38a7,7,0,0,1,4-4.18,2,2,0,0,1,2.58.6A2,2,0,0,1,114,5.86c-1.07,1.25-1.88,2.82-3.72,3.18Z" transform="translate(0 0)"/><path class="cls-1" d="M126.3,14.52a2.19,2.19,0,0,1,2.46,1.33c.51,1-.18,1.71-.81,2.27a4.81,4.81,0,0,1-4.13,1.45,1.66,1.66,0,0,1-1.31-2.24C123.22,15.63,124.34,14.45,126.3,14.52Z" transform="translate(0 0)"/><path class="cls-1" d="M72,76.21c0-1.88,1.5-3.76,3.07-3.88,1.41-.1,2.13.58,2,2A5.63,5.63,0,0,1,75.2,78c-.57.54-1.39,1.14-2.13.49a8.56,8.56,0,0,1-1.35-2.14Z" transform="translate(0 0)"/><path class="cls-1" d="M112.18,74.28a155.33,155.33,0,0,0-26.29,2l-.07-.31a4.34,4.34,0,0,1,.65-.25c3.62-.54,7.24-1.06,10.86-1.61,2.24-.34,4.46-.9,6.71-1a38.86,38.86,0,0,1,5.78.42c.8.08,1.58.3,2.36.45Z" transform="translate(0 0)"/><path class="cls-1" d="M100.73,17.61a5,5,0,0,1-2.16,3.26,1.72,1.72,0,0,1-2.32-.19,2,2,0,0,1-.68-2.56A8.68,8.68,0,0,1,98,15.53C99.21,14.68,100.77,15.76,100.73,17.61Z" transform="translate(0 0)"/><path class="cls-1" d="M151.71,73.57c-.43.61-.62,1.14-1,1.31a45.94,45.94,0,0,1-4.47,1.88c-.86.29-1.14-.21-.95-1.06.44-2,2.87-3.8,4.84-3.37C150.69,72.45,151.11,73.08,151.71,73.57Z" transform="translate(0 0)"/><path class="cls-1" d="M129.12,73.42c1.8.32,3.59.63,5.39,1s3.6.64,5.37,1.11c.58.16,1.54.93,1.47,1.16-.27.91-1.18.79-1.91.55-1.51-.49-3-1.09-4.49-1.6-1.95-.67-3.91-1.31-5.86-2Z" transform="translate(0 0)"/><path class="cls-1" d="M118.55,5.55c1.28,1.68,1,5-.55,6.65-2.31,2.5-5.93,3.27-7.61,2a7.91,7.91,0,0,0,6.36-2.34C118.63,10.14,118.59,7.85,118.55,5.55Z" transform="translate(0 0)"/><path class="cls-1" d="M154,74.56c.91,2.41.07,5.4-1.67,6.62s-5.1,1.23-6.51-.07c2.24.34,4.34.48,6.17-.76S154.17,77,154,74.56Z" transform="translate(0 0)"/><path class="cls-1" d="M80.76,73.66a4.86,4.86,0,0,1,.79,6c-1.21,1.9-3.71,3.13-5.38,2.52C81.14,81.28,82.17,78.2,80.76,73.66Z" transform="translate(0 0)"/><path class="cls-1" d="M131.73,18.26a5.56,5.56,0,0,1-1.31,5.46,3,3,0,0,1-3.42,1C130.22,23.69,131.47,21.36,131.73,18.26Z" transform="translate(0 0)"/><path class="cls-1" d="M104.59,18.06c1.26,1.06,1,2.47.83,3.72-.16,1.51-2.46,3.37-4.16,3.48C104.27,23.73,105.3,21.31,104.59,18.06Z" transform="translate(0 0)"/><path d="M112.94,227.32a50.58,50.58,0,1,1,50.55-50.6A50.71,50.71,0,0,1,112.94,227.32Zm6.92-14.92C135,210.06,151.73,195.24,150.5,173a36.65,36.65,0,0,0-12.65-26,37,37,0,0,0-18-8.87c0,2.81,0,5.44,0,8.07a2.54,2.54,0,0,0,.61,1.44c.84,1,1.8,1.81,2.67,2.75a2.23,2.23,0,0,1,.54,2.61,24.21,24.21,0,0,0-21.84,0,2.48,2.48,0,0,1,.66-2.71c.89-.92,1.81-1.8,2.69-2.74a1.73,1.73,0,0,0,.51-1c0-2.78,0-5.57,0-8.37a3.33,3.33,0,0,0-.64,0,37.66,37.66,0,0,0-15.91,7.38,1.43,1.43,0,0,1-1.94.18A9.49,9.49,0,0,0,75.32,148a9.31,9.31,0,0,0,.2,12.21,3.3,3.3,0,0,1,.91,3.91,35.52,35.52,0,0,0-1.17,17c2.94,15.87,12.26,26.08,27.63,30.82.89.28,1.82.4,2.85.63,0-3.22,0-6.25,0-9.28a2,2,0,0,0-.58-1.1c-1-1.1-2.16-2.13-3.2-3.24a2.36,2.36,0,0,1,0-3.45,24.15,24.15,0,0,0,21.72,0,2.26,2.26,0,0,1-.48,2.84c-.87.94-1.81,1.81-2.69,2.74a1.82,1.82,0,0,0-.56,1C119.84,205.53,119.86,209,119.86,212.4Z" transform="translate(0 0)"/><path d="M151.61,140.15c9.7,4,19.1,8.53,27.71,14.59a115.7,115.7,0,0,1,30.12,31.19,257,257,0,0,1-60.13,29.66c10.33-10.34,16.11-22.66,16.54-37.25S161.29,151.12,151.61,140.15Z" transform="translate(0 0)"/><path d="M76.48,215.44a258.91,258.91,0,0,1-60-29.57,119.84,119.84,0,0,1,19-22.21c11.32-10.35,24.35-17.91,39-23.48-10,11-15,23.66-14.5,38.22S66.18,205.19,76.48,215.44Z" transform="translate(0 0)"/><path class="cls-1" d="M119.86,212.4c0-3.44,0-6.87,0-10.3a1.82,1.82,0,0,1,.56-1c.88-.93,1.82-1.8,2.69-2.74a2.26,2.26,0,0,0,.48-2.84,24.15,24.15,0,0,1-21.72,0,2.36,2.36,0,0,0,0,3.45c1,1.11,2.16,2.14,3.2,3.24a2,2,0,0,1,.58,1.1c0,3,0,6.06,0,9.28-1-.23-2-.35-2.85-.63-15.37-4.74-24.69-15-27.63-30.82a35.52,35.52,0,0,1,1.17-17,3.3,3.3,0,0,0-.91-3.91,9.31,9.31,0,0,1-.2-12.21,9.49,9.49,0,0,1,11.93-2.27,1.43,1.43,0,0,0,1.94-.18,37.66,37.66,0,0,1,15.91-7.38,3.33,3.33,0,0,1,.64,0c0,2.8,0,5.59,0,8.37a1.73,1.73,0,0,1-.51,1c-.88.94-1.8,1.82-2.69,2.74a2.48,2.48,0,0,0-.66,2.71,24.21,24.21,0,0,1,21.84,0,2.23,2.23,0,0,0-.54-2.61c-.87-.94-1.83-1.79-2.67-2.75a2.54,2.54,0,0,1-.61-1.44c0-2.63,0-5.26,0-8.07a37,37,0,0,1,18,8.87,36.65,36.65,0,0,1,12.65,26C151.73,195.24,135,210.06,119.86,212.4Zm-7.11-16.74a21.44,21.44,0,1,0-21.39-21.5A21.52,21.52,0,0,0,112.75,195.66Z" transform="translate(0 0)"/><path d="M112.75,195.66a21.44,21.44,0,1,1,21.49-21.39A21.51,21.51,0,0,1,112.75,195.66Z" transform="translate(0 0)"/><polygon points="115.19 33.34 112.08 33.12 115.19 33.78 115.19 33.34"/><polyline points="114.65 50.4 111.62 50.29 114.65 50.75"/><polyline points="114.88 59.45 113.47 59.45 114.88 59.62"/><polyline points="113.37 68.78 115.82 68.78 113.37 68.96"/></svg>